<svg width="25" height="25" viewBox="0 0 25 25" fill="none" xmlns="http://www.w3.org/2000/svg">
<g clip-path="url(#clip0_63_1885)">
<path d="M12.4062 10.5972C14.6154 10.5972 16.4062 8.80631 16.4062 6.59717C16.4062 4.38803 14.6154 2.59717 12.4062 2.59717C10.1971 2.59717 8.40625 4.38803 8.40625 6.59717C8.40625 8.80631 10.1971 10.5972 12.4062 10.5972Z" stroke="white" stroke-width="1.5"/>
<path opacity="0.5" d="M18.4062 9.59717C20.0632 9.59717 21.4062 8.47717 21.4062 7.09717C21.4062 5.71717 20.0632 4.59717 18.4062 4.59717M6.40625 9.59717C4.74925 9.59717 3.40625 8.47717 3.40625 7.09717C3.40625 5.71717 4.74925 4.59717 6.40625 4.59717" stroke="white" stroke-width="1.5" stroke-linecap="round"/>
<path d="M12.4062 21.5972C15.72 21.5972 18.4062 19.8063 18.4062 17.5972C18.4062 15.388 15.72 13.5972 12.4062 13.5972C9.09254 13.5972 6.40625 15.388 6.40625 17.5972C6.40625 19.8063 9.09254 21.5972 12.4062 21.5972Z" stroke="white" stroke-width="1.5"/>
<path opacity="0.5" d="M20.4062 19.5972C22.1602 19.2122 23.4062 18.2382 23.4062 17.0972C23.4062 15.9562 22.1602 14.9822 20.4062 14.5972M4.40625 19.5972C2.65225 19.2122 1.40625 18.2382 1.40625 17.0972C1.40625 15.9562 2.65225 14.9822 4.40625 14.5972" stroke="white" stroke-width="1.5" stroke-linecap="round"/>
</g>
<defs>
<clipPath id="clip0_63_1885">
<rect width="24" height="24" fill="white" transform="translate(0.40625 0.597168)"/>
</clipPath>
</defs>
</svg>
