<svg width="59" height="60" viewBox="0 0 59 60" fill="none" xmlns="http://www.w3.org/2000/svg">
<mask id="mask0_108_12833" style="mask-type:luminance" maskUnits="userSpaceOnUse" x="3" y="4" width="54" height="52">
<path d="M5.14886 27.7162C5.11939 27.3711 5.1608 27.0234 5.27045 26.6954C5.38011 26.3673 5.55562 26.066 5.78585 25.8106C6.01607 25.5552 6.29599 25.3513 6.60784 25.2117C6.91969 25.0722 7.25666 25.0001 7.59736 25H12.2915C12.9435 25 13.5688 25.2634 14.0299 25.7322C14.4909 26.2011 14.7499 26.837 14.7499 27.5V51.25C14.7499 51.913 14.4909 52.5489 14.0299 53.0178C13.5688 53.4866 12.9435 53.75 12.2915 53.75H9.62918C9.01389 53.7501 8.42092 53.5157 7.96737 53.0928C7.51382 52.67 7.23267 52.0896 7.17945 51.4662L5.14886 27.7162ZM22.1249 26.7187C22.1249 25.6737 22.764 24.7387 23.6921 24.2937C25.719 23.3212 29.1717 21.3675 30.729 18.7262C32.7363 15.3212 33.1149 9.16999 33.1763 7.76124C33.1849 7.56374 33.18 7.36624 33.2058 7.17124C33.5389 4.72999 38.1717 7.58124 39.9478 10.5962C40.9127 12.2312 41.0356 14.38 40.9348 16.0587C40.8254 17.8537 40.3079 19.5875 39.8003 21.31L38.7186 24.9812H52.0637C52.4435 24.9812 52.8182 25.0707 53.1583 25.2427C53.4984 25.4146 53.7947 25.6644 54.0239 25.9724C54.2532 26.2803 54.4091 26.6381 54.4795 27.0177C54.55 27.3972 54.533 27.7882 54.4298 28.16L47.8292 51.93C47.6835 52.4542 47.3734 52.9157 46.9461 53.2443C46.5187 53.5728 45.9975 53.7504 45.4618 53.75H24.5832C23.9312 53.75 23.3059 53.4866 22.8449 53.0178C22.3839 52.5489 22.1249 51.913 22.1249 51.25V26.7187Z" fill="white" stroke="white" stroke-width="4" stroke-linecap="round" stroke-linejoin="round"/>
</mask>
<g mask="url(#mask0_108_12833)">
<path d="M0 0H59V60H0V0Z" fill="#FFBA00"/>
</g>
</svg>
