<svg width="24" height="25" viewBox="0 0 24 25" fill="none" xmlns="http://www.w3.org/2000/svg">
<path opacity="0.5" d="M9.16992 7.47165C9.1816 5.35443 9.27603 4.20773 10.0236 3.46014C10.8793 2.60449 12.2557 2.60449 15.0086 2.60449H15.982C18.7358 2.60449 20.1123 2.60449 20.9679 3.46014C21.8226 4.31481 21.8226 5.69222 21.8226 8.44508V16.2325C21.8226 18.9854 21.8226 20.3628 20.9679 21.2175C20.1113 22.0731 18.7358 22.0731 15.982 22.0731H15.0086C12.2557 22.0731 10.8793 22.0731 10.0236 21.2175C9.27603 20.4699 9.1816 19.3232 9.16992 17.206" stroke="white" stroke-width="1.46015" stroke-linecap="round"/>
<path d="M15.0081 12.3388H2.35352M2.35352 12.3388L5.76052 9.41846M2.35352 12.3388L5.76052 15.259" stroke="white" stroke-width="1.46015" stroke-linecap="round" stroke-linejoin="round"/>
</svg>
