<svg width="54" height="52" viewBox="0 0 54 52" fill="none" xmlns="http://www.w3.org/2000/svg">
<mask id="mask0_108_12834" style="mask-type:luminance" maskUnits="userSpaceOnUse" x="0" y="0" width="54" height="52">
<path d="M2.14886 23.7162C2.11939 23.3711 2.1608 23.0234 2.27045 22.6954C2.38011 22.3673 2.55562 22.066 2.78585 21.8106C3.01607 21.5552 3.29599 21.3513 3.60784 21.2117C3.91969 21.0722 4.25666 21.0001 4.59736 21H9.29155C9.94354 21 10.5688 21.2634 11.0299 21.7322C11.4909 22.2011 11.7499 22.837 11.7499 23.5V47.25C11.7499 47.913 11.4909 48.5489 11.0299 49.0178C10.5688 49.4866 9.94354 49.75 9.29155 49.75H6.62918C6.01389 49.7501 5.42092 49.5157 4.96737 49.0928C4.51382 48.67 4.23267 48.0896 4.17945 47.4662L2.14886 23.7162ZM19.1249 22.7187C19.1249 21.6737 19.764 20.7387 20.6921 20.2937C22.719 19.3212 26.1717 17.3675 27.729 14.7262C29.7363 11.3212 30.1149 5.16999 30.1763 3.76124C30.1849 3.56374 30.18 3.36624 30.2058 3.17124C30.5389 0.729993 35.1717 3.58124 36.9478 6.59624C37.9127 8.23124 38.0356 10.38 37.9348 12.0587C37.8254 13.8537 37.3079 15.5875 36.8003 17.31L35.7186 20.9812H49.0637C49.4435 20.9812 49.8182 21.0707 50.1583 21.2427C50.4984 21.4146 50.7947 21.6644 51.0239 21.9724C51.2532 22.2803 51.4091 22.6381 51.4795 23.0177C51.55 23.3972 51.533 23.7882 51.4298 24.16L44.8292 47.93C44.6835 48.4542 44.3734 48.9157 43.9461 49.2443C43.5187 49.5728 42.9975 49.7504 42.4618 49.75H21.5832C20.9312 49.75 20.3059 49.4866 19.8449 49.0178C19.3839 48.5489 19.1249 47.913 19.1249 47.25V22.7187Z" fill="white" stroke="white" stroke-width="4" stroke-linecap="round" stroke-linejoin="round"/>
</mask>
<g mask="url(#mask0_108_12834)">
<path d="M-3 -4H56V56H-3V-4Z" fill="#FFBA00"/>
</g>
</svg>
