<svg width="24" height="24" viewBox="0 0 24 24" fill="none" xmlns="http://www.w3.org/2000/svg">
<path opacity="0.5" d="M2.35352 12.4944C2.35352 10.2662 2.35352 9.15262 2.8597 8.22981C3.36394 7.30603 4.28772 6.73365 6.13432 5.58695L8.08118 4.37892C10.0329 3.167 11.0093 2.56152 12.0878 2.56152C13.1664 2.56152 14.1418 3.167 16.0945 4.37892L18.0413 5.58695C19.8879 6.73365 20.8117 7.30603 21.3169 8.22981C21.8221 9.15262 21.8221 10.2662 21.8221 12.4934V13.975C21.8221 17.7714 21.8221 19.6705 20.6813 20.8503C19.5414 22.0301 17.7055 22.0301 14.0347 22.0301H10.141C6.47016 22.0301 4.63426 22.0301 3.49438 20.8503C2.35352 19.6705 2.35352 17.7724 2.35352 13.975V12.4944Z" stroke="white" stroke-width="1.46015"/>
<path d="M12.0879 15.2163V18.1366" stroke="white" stroke-width="1.46015" stroke-linecap="round"/>
</svg>
