<svg width="24" height="27" viewBox="0 0 24 27" fill="none" xmlns="http://www.w3.org/2000/svg">
<path d="M15.5714 17.2C15.382 17.2 15.2003 17.2843 15.0664 17.4343C14.9324 17.5843 14.8571 17.7878 14.8571 18C14.8571 18.2122 14.9324 18.4157 15.0664 18.5657C15.2003 18.7157 15.382 18.8 15.5714 18.8H18.4286C18.618 18.8 18.7997 18.7157 18.9336 18.5657C19.0676 18.4157 19.1429 18.2122 19.1429 18C19.1429 17.7878 19.0676 17.5843 18.9336 17.4343C18.7997 17.2843 18.618 17.2 18.4286 17.2H15.5714ZM2 10C2 8.93913 2.37627 7.92172 3.04605 7.17157C3.71582 6.42143 4.62423 6 5.57143 6H18.4286C19.3758 6 20.2842 6.42143 20.954 7.17157C21.6237 7.92172 22 8.93913 22 10V18C22 19.0609 21.6237 20.0783 20.954 20.8284C20.2842 21.5786 19.3758 22 18.4286 22H5.57143C4.62423 22 3.71582 21.5786 3.04605 20.8284C2.37627 20.0783 2 19.0609 2 18V10ZM20.5714 10.8V10C20.5714 9.36348 20.3457 8.75303 19.9438 8.30294C19.5419 7.85286 18.9969 7.6 18.4286 7.6H5.57143C5.00311 7.6 4.45806 7.85286 4.0562 8.30294C3.65434 8.75303 3.42857 9.36348 3.42857 10V10.8H20.5714ZM3.42857 12.4V18C3.42857 18.6365 3.65434 19.247 4.0562 19.6971C4.45806 20.1471 5.00311 20.4 5.57143 20.4H18.4286C18.9969 20.4 19.5419 20.1471 19.9438 19.6971C20.3457 19.247 20.5714 18.6365 20.5714 18V12.4H3.42857Z" fill="white"/>
</svg>
