<svg width="29" height="27" viewBox="0 0 29 27" fill="none" xmlns="http://www.w3.org/2000/svg">
<path opacity="0.5" d="M14.2852 25.2749C20.9126 25.2749 26.2852 19.9023 26.2852 13.2749C26.2852 6.64749 20.9126 1.2749 14.2852 1.2749C7.65774 1.2749 2.28516 6.64749 2.28516 13.2749C2.28516 19.9023 7.65774 25.2749 14.2852 25.2749Z" stroke="#EF0000"/>
<path d="M14.2855 6.07471V20.4747M17.8855 10.2747C17.8855 8.61871 16.2739 7.27471 14.2855 7.27471C12.2971 7.27471 10.6855 8.61871 10.6855 10.2747C10.6855 11.9307 12.2971 13.2747 14.2855 13.2747C16.2739 13.2747 17.8855 14.6187 17.8855 16.2747C17.8855 17.9307 16.2739 19.2747 14.2855 19.2747C12.2971 19.2747 10.6855 17.9307 10.6855 16.2747" stroke="#EF0000" stroke-linecap="round"/>
</svg>
