<svg width="25" height="25" viewBox="0 0 25 25" fill="none" xmlns="http://www.w3.org/2000/svg">
<rect x="1.07719" y="1.11088" width="22.7783" height="22.7783" rx="11.3891" stroke="#EF0000" stroke-width="0.584059"/>
<path d="M12.4666 11.7033C13.6396 11.7033 14.5905 10.7524 14.5905 9.57942C14.5905 8.40645 13.6396 7.45557 12.4666 7.45557C11.2937 7.45557 10.3428 8.40645 10.3428 9.57942C10.3428 10.7524 11.2937 11.7033 12.4666 11.7033Z" stroke="#EF0000" stroke-width="0.973431"/>
<path opacity="0.5" d="M15.651 11.1734C16.5308 11.1734 17.2438 10.5787 17.2438 9.84596C17.2438 9.11323 16.5308 8.51855 15.651 8.51855M9.27941 11.1734C8.39961 11.1734 7.68652 10.5787 7.68652 9.84596C7.68652 9.11323 8.39961 8.51855 9.27941 8.51855" stroke="#EF0000" stroke-width="0.973431" stroke-linecap="round"/>
<path d="M12.466 17.5441C14.2255 17.5441 15.6518 16.5932 15.6518 15.4202C15.6518 14.2473 14.2255 13.2964 12.466 13.2964C10.7066 13.2964 9.28027 14.2473 9.28027 15.4202C9.28027 16.5932 10.7066 17.5441 12.466 17.5441Z" stroke="#EF0000" stroke-width="0.973431"/>
<path opacity="0.5" d="M16.7143 16.4815C17.6456 16.2771 18.3071 15.7599 18.3071 15.1541C18.3071 14.5482 17.6456 14.0311 16.7143 13.8267M8.21886 16.4815C7.28756 16.2771 6.62598 15.7599 6.62598 15.1541C6.62598 14.5482 7.28756 14.0311 8.21886 13.8267" stroke="#EF0000" stroke-width="0.973431" stroke-linecap="round"/>
</svg>
