<svg width="25" height="25" viewBox="0 0 25 25" fill="none" xmlns="http://www.w3.org/2000/svg">
<rect x="1.27187" y="1.30556" width="22.3889" height="22.3889" rx="11.1945" stroke="#EF0000" stroke-width="0.973431"/>
<path d="M7.44094 14.89V8.8353H6.62598V14.891H7.44094V14.89ZM18.3071 14.89V8.79999H17.4922V14.8905L18.3071 14.89ZM16.8435 7.35206C16.2246 7.3738 15.4167 7.43736 14.7946 7.62372L15.0283 8.405C15.5444 8.2507 16.2638 8.18768 16.8717 8.16649L16.8435 7.35206ZM14.7946 7.62372C14.2541 7.78563 13.6461 8.10238 13.1718 8.37675L13.5803 9.08196C14.0422 8.81466 14.5828 8.53865 15.0283 8.405L14.7946 7.62372ZM8.08531 8.19691C8.61015 8.22897 9.20453 8.29145 9.64624 8.40826L9.85378 7.61992C9.33221 7.48192 8.67154 7.41618 8.13529 7.38303L8.08531 8.19691ZM9.64624 8.40826C10.1689 8.54626 10.8122 8.84834 11.343 9.12869L11.7233 8.40826C11.1827 8.12194 10.4715 7.78345 9.85433 7.62046L9.64624 8.40826ZM13.5423 17.3821C14.0807 17.0952 14.7479 16.779 15.2869 16.6367L15.0793 15.8489C14.4437 16.0162 13.7069 16.371 13.1593 16.6628L13.5423 17.3821ZM15.2869 16.6367C15.7232 16.5215 16.3094 16.4585 16.8304 16.4259L16.7794 15.6126C16.2469 15.6462 15.5955 15.712 15.0788 15.8484L15.2869 16.6367ZM11.7738 16.6628C11.2262 16.371 10.49 16.0162 9.85378 15.8484L9.64624 16.6362C10.1852 16.779 10.8524 17.0952 11.3903 17.3821L11.7738 16.6628ZM9.85378 15.8484C9.33764 15.7125 8.68567 15.6462 8.15322 15.6126L8.10269 16.4259C8.62373 16.4585 9.20996 16.5215 9.6457 16.6367L9.85378 15.8489V15.8484ZM17.4922 14.8905C17.4922 15.2632 17.1836 15.5876 16.7794 15.6126L16.8304 16.4259C17.6313 16.3759 18.3071 15.7245 18.3071 14.89L17.4922 14.8905ZM18.3071 8.79999C18.3071 8.00458 17.6742 7.32218 16.8435 7.35098L16.8717 8.16649C17.2059 8.15453 17.4922 8.42891 17.4922 8.7989H18.3071V8.79999ZM6.62598 14.89C6.62598 15.7245 7.30185 16.3759 8.10269 16.4264L8.15322 15.6126C7.749 15.5876 7.44094 15.2621 7.44094 14.89H6.62598ZM13.1593 16.6628C12.9459 16.7759 12.7081 16.8355 12.4666 16.8355C12.2251 16.8355 11.9872 16.7759 11.7738 16.6628L11.3908 17.3821C11.7221 17.5579 12.0915 17.6499 12.4666 17.6499C12.8416 17.6499 13.211 17.5579 13.5423 17.3821L13.1593 16.6628ZM13.1718 8.37566C12.9526 8.50235 12.705 8.57171 12.4519 8.57731C12.1988 8.58291 11.9484 8.52458 11.7239 8.40772L11.343 9.12869C11.6896 9.31002 12.0764 9.40023 12.4675 9.39197C12.8585 9.3837 13.2412 9.27669 13.5798 9.08088L13.1718 8.37566ZM7.44094 8.8353C7.44094 8.45661 7.74085 8.17572 8.08531 8.19691L8.13529 7.38303C7.28882 7.33142 6.62598 8.02142 6.62598 8.8353H7.44094Z" fill="#EF0000"/>
<path opacity="0.5" d="M12.4668 9.30078V17.5298" stroke="#EF0000" stroke-width="0.973431"/>
<path opacity="0.5" d="M8.66406 11.0098L10.8373 11.5531M8.66406 13.183L10.8373 13.7263M16.2704 13.183L14.0972 13.7263" stroke="#EF0000" stroke-width="0.973431" stroke-linecap="round"/>
<path d="M16.2689 9.10693V11.2856C16.2689 11.4356 16.2689 11.5105 16.2173 11.541C16.1657 11.5708 16.0956 11.5372 15.9544 11.4703L15.2796 11.1498C15.2318 11.127 15.2079 11.1161 15.1823 11.1161C15.1568 11.1161 15.1329 11.127 15.0851 11.1498L14.4103 11.4703C14.269 11.5372 14.1984 11.5708 14.1473 11.541C14.0957 11.51 14.0957 11.435 14.0957 11.2856V9.89473" stroke="#EF0000" stroke-width="0.973431" stroke-linecap="round"/>
</svg>
