<svg width="25" height="25" viewBox="0 0 25 25" fill="none" xmlns="http://www.w3.org/2000/svg">
<path d="M2.40625 12.0464C2.40625 8.27539 2.40625 6.38939 3.57825 5.21839C4.74925 4.04639 6.63525 4.04639 10.4062 4.04639H14.4062C18.1772 4.04639 20.0632 4.04639 21.2342 5.21839C22.4062 6.38939 22.4062 8.27539 22.4062 12.0464V14.0464C22.4062 17.8174 22.4062 19.7034 21.2342 20.8744C20.0632 22.0464 18.1772 22.0464 14.4062 22.0464H10.4062C6.63525 22.0464 4.74925 22.0464 3.57825 20.8744C2.40625 19.7034 2.40625 17.8174 2.40625 14.0464V12.0464Z" stroke="white" stroke-width="1.5"/>
<path opacity="0.5" d="M7.40625 4.04639V2.54639M17.4062 4.04639V2.54639M2.90625 9.04639H21.9062" stroke="white" stroke-width="1.5" stroke-linecap="round"/>
<path d="M18.4062 17.0464C18.4062 17.3116 18.3009 17.566 18.1134 17.7535C17.9258 17.941 17.6715 18.0464 17.4062 18.0464C17.141 18.0464 16.8867 17.941 16.6991 17.7535C16.5116 17.566 16.4062 17.3116 16.4062 17.0464C16.4062 16.7812 16.5116 16.5268 16.6991 16.3393C16.8867 16.1517 17.141 16.0464 17.4062 16.0464C17.6715 16.0464 17.9258 16.1517 18.1134 16.3393C18.3009 16.5268 18.4062 16.7812 18.4062 17.0464ZM18.4062 13.0464C18.4062 13.3116 18.3009 13.566 18.1134 13.7535C17.9258 13.941 17.6715 14.0464 17.4062 14.0464C17.141 14.0464 16.8867 13.941 16.6991 13.7535C16.5116 13.566 16.4062 13.3116 16.4062 13.0464C16.4062 12.7812 16.5116 12.5268 16.6991 12.3393C16.8867 12.1517 17.141 12.0464 17.4062 12.0464C17.6715 12.0464 17.9258 12.1517 18.1134 12.3393C18.3009 12.5268 18.4062 12.7812 18.4062 13.0464ZM13.4062 17.0464C13.4062 17.3116 13.3009 17.566 13.1134 17.7535C12.9258 17.941 12.6715 18.0464 12.4062 18.0464C12.141 18.0464 11.8867 17.941 11.6991 17.7535C11.5116 17.566 11.4062 17.3116 11.4062 17.0464C11.4062 16.7812 11.5116 16.5268 11.6991 16.3393C11.8867 16.1517 12.141 16.0464 12.4062 16.0464C12.6715 16.0464 12.9258 16.1517 13.1134 16.3393C13.3009 16.5268 13.4062 16.7812 13.4062 17.0464ZM13.4062 13.0464C13.4062 13.3116 13.3009 13.566 13.1134 13.7535C12.9258 13.941 12.6715 14.0464 12.4062 14.0464C12.141 14.0464 11.8867 13.941 11.6991 13.7535C11.5116 13.566 11.4062 13.3116 11.4062 13.0464C11.4062 12.7812 11.5116 12.5268 11.6991 12.3393C11.8867 12.1517 12.141 12.0464 12.4062 12.0464C12.6715 12.0464 12.9258 12.1517 13.1134 12.3393C13.3009 12.5268 13.4062 12.7812 13.4062 13.0464ZM8.40625 17.0464C8.40625 17.3116 8.30089 17.566 8.11336 17.7535C7.92582 17.941 7.67147 18.0464 7.40625 18.0464C7.14103 18.0464 6.88668 17.941 6.69914 17.7535C6.51161 17.566 6.40625 17.3116 6.40625 17.0464C6.40625 16.7812 6.51161 16.5268 6.69914 16.3393C6.88668 16.1517 7.14103 16.0464 7.40625 16.0464C7.67147 16.0464 7.92582 16.1517 8.11336 16.3393C8.30089 16.5268 8.40625 16.7812 8.40625 17.0464ZM8.40625 13.0464C8.40625 13.3116 8.30089 13.566 8.11336 13.7535C7.92582 13.941 7.67147 14.0464 7.40625 14.0464C7.14103 14.0464 6.88668 13.941 6.69914 13.7535C6.51161 13.566 6.40625 13.3116 6.40625 13.0464C6.40625 12.7812 6.51161 12.5268 6.69914 12.3393C6.88668 12.1517 7.14103 12.0464 7.40625 12.0464C7.67147 12.0464 7.92582 12.1517 8.11336 12.3393C8.30089 12.5268 8.40625 12.7812 8.40625 13.0464Z" fill="white"/>
</svg>
